<svg width="26" height="26" viewBox="0 0 26 26" fill="none" xmlns="http://www.w3.org/2000/svg">
<circle cx="13" cy="13" r="13" fill="#121214"/>
<path d="M8.00121 5.28201C7.99217 5.03406 8.03379 4.78792 8.12247 4.55807C8.21116 4.32822 8.34509 4.1219 8.51521 3.94996C8.90976 3.60609 9.40566 3.41968 9.91784 3.41968C10.43 3.41968 10.9259 3.6079 11.3205 3.94996C11.4888 4.12552 11.6227 4.33365 11.7132 4.5635C11.8037 4.79335 11.8508 5.03949 11.8508 5.28925C11.8508 5.53901 11.8037 5.78515 11.7132 6.015C11.6227 6.24485 11.4888 6.45298 11.3205 6.62853C10.9277 6.97241 10.4336 7.15882 9.92146 7.15882C9.40927 7.15882 8.91519 6.9706 8.52245 6.62853C8.35232 6.45479 8.21659 6.24485 8.1279 6.01319C8.03922 5.77972 7.99579 5.53177 8.00121 5.28201ZM11.639 22.2584H8.2003V8.76596H11.639V22.2584Z" fill="white"/>
<path d="M17.5034 22.2586H13.8674V3H17.5034V22.2586Z" fill="white"/>
</svg>
